<svg viewBox="0 0 1400 900" width="1400" height="900" xmlns="http://www.w3.org/2000/svg">
  <defs>
    <!-- Background blur for brownstone -->
    <filter id="heavyBlur">
      <feGaussianBlur stdDeviation="14"/>
    </filter>
    <filter id="medBlur">
      <feGaussianBlur stdDeviation="6"/>
    </filter>
    <filter id="lightBlur">
      <feGaussianBlur stdDeviation="2.5"/>
    </filter>
    <!-- Vignette -->
    <radialGradient id="vignette" cx="50%" cy="50%" r="70%">
      <stop offset="0%" stopColor="transparent"/>
      <stop offset="100%" stopColor="#1a0e08" stopOpacity="0.45"/>
    </radialGradient>
    <!-- Sky gradient -->
    <linearGradient id="skyGrad" x1="0" y1="0" x2="0" y2="1">
      <stop offset="0%" stopColor="#8090a0"/>
      <stop offset="100%" stopColor="#b0bec8"/>
    </linearGradient>
    <!-- Soil -->
    <linearGradient id="soilGrad" x1="0" y1="0" x2="0" y2="1">
      <stop offset="0%" stopColor="#3a2210"/>
      <stop offset="100%" stopColor="#2a1808"/>
    </linearGradient>
    <!-- Depth fog gradient (overlays background to blur toward ground) -->
    <linearGradient id="depthFog" x1="0" y1="0" x2="0" y2="1">
      <stop offset="0%" stopColor="#c0b8b0" stopOpacity="0"/>
      <stop offset="60%" stopColor="#c8c0b8" stopOpacity="0"/>
      <stop offset="100%" stopColor="#c8c0b8" stopOpacity="0.55"/>
    </linearGradient>
  </defs>

  <!-- ══════════════════════════════════════════════════════ -->
  <!-- LAYER 1: SKY (blurry background) -->
  <!-- ══════════════════════════════════════════════════════ -->
  <rect x="0" y="0" width="1400" height="900" fill="url(#skyGrad)"/>

  <!-- ══════════════════════════════════════════════════════ -->
  <!-- LAYER 2: BROWNSTONE FACADE — blurry, color-blocked -->
  <!-- just suggestion of the building, no detail -->
  <!-- ══════════════════════════════════════════════════════ -->
  <g filter="url(#heavyBlur)" opacity="0.85">
    <!-- main facade body -->
    <rect x="0" y="0" width="1400" height="580" fill="#c07850"/>
    <!-- darker belt course suggestion -->
    <rect x="0" y="200" width="1400" height="18" fill="#9a5830"/>
    <!-- door arch — just a dark blurry blob suggesting an arch -->
    <ellipse cx="700" cy="420" rx="130" ry="170" fill="#18120e"/>
    <rect x="570" y="420" width="260" height="160" fill="#18120e"/>
    <!-- globe sconces — just blurry warm blobs of light -->
    <circle cx="550" cy="360" r="50" fill="#f8e070" opacity="0.7"/>
    <circle cx="850" cy="360" r="50" fill="#f8e070" opacity="0.7"/>
    <!-- window suggestions left -->
    <rect x="40" y="240" width="200" height="160" fill="#0d1820" opacity="0.8"/>
    <rect x="280" y="240" width="180" height="160" fill="#0d1820" opacity="0.7"/>
    <!-- window suggestions right -->
    <rect x="940" y="240" width="200" height="160" fill="#0d1820" opacity="0.8"/>
    <rect x="1160" y="240" width="180" height="160" fill="#0d1820" opacity="0.7"/>
    <!-- upper window row suggestion -->
    <rect x="80" y="80" width="120" height="80" fill="#0d1820" opacity="0.6"/>
    <rect x="260" y="80" width="120" height="80" fill="#0d1820" opacity="0.5"/>
    <rect x="1020" y="80" width="120" height="80" fill="#0d1820" opacity="0.6"/>
    <rect x="1200" y="80" width="120" height="80" fill="#0d1820" opacity="0.5"/>
    <!-- stoop plinth -->
    <rect x="460" y="560" width="480" height="120" fill="#b07040"/>
  </g>

  <!-- "No 75" barely legible in background -->
  <text x="700" y="360" textAnchor="middle" fontFamily="Georgia, serif" fontSize="26"
    fill="#c8a018" opacity="0.35" filter="url(#medBlur)" fontWeight="bold" letterSpacing="1">No 75</text>

  <!-- ══════════════════════════════════════════════════════ -->
  <!-- LAYER 3: MAGNOLIA — upper left, branches in frame -->
  <!-- partially in view, blurry-to-sharp left to right -->
  <!-- ══════════════════════════════════════════════════════ -->
  <g filter="url(#medBlur)" opacity="0.9">
    <!-- main trunk entering from left -->
    <line x1="-20" y1="900" x2="80" y2="300" stroke="#c8bfb0" strokeWidth="26" strokeLinecap="round"/>
    <line x1="80" y1="300" x2="60" y2="100" stroke="#c8bfb0" strokeWidth="16" strokeLinecap="round"/>
    <!-- branches reaching across upper frame -->
    <line x1="60" y1="260" x2="280" y2="160" stroke="#c8bfb0" strokeWidth="10" strokeLinecap="round"/>
    <line x1="280" y1="160" x2="460" y2="100" stroke="#b0a898" strokeWidth="7" strokeLinecap="round"/>
    <line x1="460" y1="100" x2="600" y2="60" stroke="#b0a898" strokeWidth="5" strokeLinecap="round"/>
    <line x1="60" y1="200" x2="200" y2="80" stroke="#b0a898" strokeWidth="8" strokeLinecap="round"/>
    <line x1="200" y1="80" x2="340" y2="20" stroke="#b0a898" strokeWidth="5" strokeLinecap="round"/>
    <!-- bloom blobs on tips — early March, just opening -->
    <circle cx="600" cy="60" r="22" fill="#f0b8d0" opacity="0.8"/>
    <circle cx="460" cy="100" r="18" fill="#f0b8d0" opacity="0.7"/>
    <circle cx="340" cy="20" r="16" fill="#f0b8d0" opacity="0.6"/>
    <circle cx="280" cy="160" r="14" fill="#f0b8d0" opacity="0.6"/>
    <circle cx="200" cy="80" r="20" fill="#f8d0e0" opacity="0.75"/>
  </g>

  <!-- ══════════════════════════════════════════════════════ -->
  <!-- LAYER 4: IRON FENCE — mid-distance, light blur -->
  <!-- runs across the scene, retaining wall below it -->
  <!-- ══════════════════════════════════════════════════════ -->
  <g filter="url(#lightBlur)">
    <!-- retaining wall cap -->
    <rect x="-10" y="570" width="960" height="22" fill="#c07850"/>
    <rect x="-10" y="558" width="960" height="14" fill="#d09060"/>
    <!-- fence rail top -->
    <rect x="-10" y="540" width="960" height="5" fill="#151210"/>
    <rect x="-10" y="553" width="960" height="3" fill="#151210" opacity="0.7"/>
    <!-- fence pickets — visible range -->
    <line x1="10"  y1="544" x2="10"  y2="514" stroke="#151210" strokeWidth="3.5"/>
    <line x1="30"  y1="544" x2="30"  y2="514" stroke="#151210" strokeWidth="3.5"/>
    <line x1="50"  y1="544" x2="50"  y2="514" stroke="#151210" strokeWidth="3.5"/>
    <line x1="70"  y1="544" x2="70"  y2="514" stroke="#151210" strokeWidth="3.5"/>
    <line x1="90"  y1="544" x2="90"  y2="514" stroke="#151210" strokeWidth="3.5"/>
    <line x1="110" y1="544" x2="110" y2="514" stroke="#151210" strokeWidth="3.5"/>
    <line x1="130" y1="544" x2="130" y2="514" stroke="#151210" strokeWidth="3.5"/>
    <line x1="150" y1="544" x2="150" y2="514" stroke="#151210" strokeWidth="3.5"/>
    <line x1="170" y1="544" x2="170" y2="514" stroke="#151210" strokeWidth="3.5"/>
    <line x1="190" y1="544" x2="190" y2="514" stroke="#151210" strokeWidth="3.5"/>
    <line x1="210" y1="544" x2="210" y2="514" stroke="#151210" strokeWidth="3.5"/>
    <line x1="230" y1="544" x2="230" y2="514" stroke="#151210" strokeWidth="3.5"/>
    <line x1="250" y1="544" x2="250" y2="514" stroke="#151210" strokeWidth="3.5"/>
    <line x1="270" y1="544" x2="270" y2="514" stroke="#151210" strokeWidth="3.5"/>
    <line x1="290" y1="544" x2="290" y2="514" stroke="#151210" strokeWidth="3.5"/>
    <line x1="310" y1="544" x2="310" y2="514" stroke="#151210" strokeWidth="3.5"/>
    <line x1="330" y1="544" x2="330" y2="514" stroke="#151210" strokeWidth="3.5"/>
    <line x1="350" y1="544" x2="350" y2="514" stroke="#151210" strokeWidth="3.5"/>
    <line x1="370" y1="544" x2="370" y2="514" stroke="#151210" strokeWidth="3.5"/>
    <line x1="390" y1="544" x2="390" y2="514" stroke="#151210" strokeWidth="3.5"/>
    <line x1="410" y1="544" x2="410" y2="514" stroke="#151210" strokeWidth="3.5"/>
    <line x1="430" y1="544" x2="430" y2="514" stroke="#151210" strokeWidth="3.5"/>
    <line x1="450" y1="544" x2="450" y2="514" stroke="#151210" strokeWidth="3.5"/>
    <line x1="470" y1="544" x2="470" y2="514" stroke="#151210" strokeWidth="3.5"/>
    <line x1="490" y1="544" x2="490" y2="514" stroke="#151210" strokeWidth="3.5"/>
    <line x1="510" y1="544" x2="510" y2="514" stroke="#151210" strokeWidth="3.5"/>
    <line x1="530" y1="544" x2="530" y2="514" stroke="#151210" strokeWidth="3.5"/>
    <line x1="550" y1="544" x2="550" y2="514" stroke="#151210" strokeWidth="3.5"/>
    <line x1="570" y1="544" x2="570" y2="514" stroke="#151210" strokeWidth="3.5"/>
    <line x1="590" y1="544" x2="590" y2="514" stroke="#151210" strokeWidth="3.5"/>
    <line x1="610" y1="544" x2="610" y2="514" stroke="#151210" strokeWidth="3.5"/>
    <line x1="630" y1="544" x2="630" y2="514" stroke="#151210" strokeWidth="3.5"/>
    <line x1="650" y1="544" x2="650" y2="514" stroke="#151210" strokeWidth="3.5"/>
    <line x1="670" y1="544" x2="670" y2="514" stroke="#151210" strokeWidth="3.5"/>
    <line x1="690" y1="544" x2="690" y2="514" stroke="#151210" strokeWidth="3.5"/>
    <line x1="710" y1="544" x2="710" y2="514" stroke="#151210" strokeWidth="3.5"/>
    <line x1="730" y1="544" x2="730" y2="514" stroke="#151210" strokeWidth="3.5"/>
    <line x1="750" y1="544" x2="750" y2="514" stroke="#151210" strokeWidth="3.5"/>
    <line x1="770" y1="544" x2="770" y2="514" stroke="#151210" strokeWidth="3.5"/>
    <line x1="790" y1="544" x2="790" y2="514" stroke="#151210" strokeWidth="3.5"/>
    <line x1="810" y1="544" x2="810" y2="514" stroke="#151210" strokeWidth="3.5"/>
    <line x1="830" y1="544" x2="830" y2="514" stroke="#151210" strokeWidth="3.5"/>
    <line x1="850" y1="544" x2="850" y2="514" stroke="#151210" strokeWidth="3.5"/>
    <line x1="870" y1="544" x2="870" y2="514" stroke="#151210" strokeWidth="3.5"/>
    <line x1="890" y1="544" x2="890" y2="514" stroke="#151210" strokeWidth="3.5"/>
    <line x1="910" y1="544" x2="910" y2="514" stroke="#151210" strokeWidth="3.5"/>
    <line x1="930" y1="544" x2="930" y2="514" stroke="#151210" strokeWidth="3.5"/>
    <!-- spear tips -->
    <circle cx="10"  cy="514" r="4" fill="#151210"/>
    <circle cx="50"  cy="514" r="4" fill="#151210"/>
    <circle cx="90"  cy="514" r="4" fill="#151210"/>
    <circle cx="130" cy="514" r="4" fill="#151210"/>
    <circle cx="170" cy="514" r="4" fill="#151210"/>
    <circle cx="210" cy="514" r="4" fill="#151210"/>
    <circle cx="250" cy="514" r="4" fill="#151210"/>
    <circle cx="290" cy="514" r="4" fill="#151210"/>
    <circle cx="330" cy="514" r="4" fill="#151210"/>
    <circle cx="370" cy="514" r="4" fill="#151210"/>
    <circle cx="410" cy="514" r="4" fill="#151210"/>
    <circle cx="450" cy="514" r="4" fill="#151210"/>
    <circle cx="490" cy="514" r="4" fill="#151210"/>
    <circle cx="530" cy="514" r="4" fill="#151210"/>
    <circle cx="570" cy="514" r="4" fill="#151210"/>
    <circle cx="610" cy="514" r="4" fill="#151210"/>
    <circle cx="650" cy="514" r="4" fill="#151210"/>
    <circle cx="690" cy="514" r="4" fill="#151210"/>
    <circle cx="730" cy="514" r="4" fill="#151210"/>
    <circle cx="770" cy="514" r="4" fill="#151210"/>
    <circle cx="810" cy="514" r="4" fill="#151210"/>
    <circle cx="850" cy="514" r="4" fill="#151210"/>
    <circle cx="890" cy="514" r="4" fill="#151210"/>
    <circle cx="930" cy="514" r="4" fill="#151210"/>
  </g>

  <!-- ══════════════════════════════════════════════════════ -->
  <!-- LAYER 5: SOIL / EARTH — close-up ground -->
  <!-- ══════════════════════════════════════════════════════ -->
  <rect x="0" y="590" width="950" height="310" fill="url(#soilGrad)"/>
  <!-- soil texture lines -->
  <line x1="0"   y1="620" x2="180" y2="620" stroke="#2a1608" strokeWidth="1.2" opacity="0.6"/>
  <line x1="60"  y1="650" x2="280" y2="650" stroke="#2a1608" strokeWidth="1" opacity="0.4"/>
  <line x1="0"   y1="680" x2="140" y2="680" stroke="#2a1608" strokeWidth="1" opacity="0.35"/>
  <line x1="300" y1="640" x2="520" y2="640" stroke="#2a1608" strokeWidth="1" opacity="0.4"/>
  <line x1="180" y1="700" x2="380" y2="700" stroke="#2a1608" strokeWidth="1" opacity="0.3"/>
  <!-- small rocks / mulch dots -->
  <ellipse cx="80"  cy="630" rx="12" ry="6" fill="#4a2e14" opacity="0.5"/>
  <ellipse cx="210" cy="660" rx="9"  ry="5" fill="#3a2210" opacity="0.4"/>
  <ellipse cx="340" cy="615" rx="14" ry="7" fill="#4a2e14" opacity="0.45"/>
  <ellipse cx="520" cy="650" rx="10" ry="5" fill="#3a2210" opacity="0.4"/>
  <ellipse cx="680" cy="635" rx="8"  ry="4" fill="#4a2e14" opacity="0.35"/>

  <!-- ══════════════════════════════════════════════════════ -->
  <!-- LAYER 6: ROSE CANES — the stars, close-up, detailed -->
  <!-- 6 Double Knock Out roses, spread across the bed      -->
  <!-- each cane is large, fills vertical space, has buds   -->
  <!-- ══════════════════════════════════════════════════════ -->

  <!-- ROSE 1 — far left, partially cut off -->
  <g opacity="0.9">
    <line x1="40"  y1="900" x2="20"  y2="540" stroke="#4a3018" strokeWidth="7" strokeLinecap="round"/>
    <line x1="50"  y1="900" x2="70"  y2="510" stroke="#5a3a20" strokeWidth="6" strokeLinecap="round"/>
    <line x1="45"  y1="900" x2="-10" y2="560" stroke="#3a2810" strokeWidth="5" strokeLinecap="round"/>
    <!-- laterals -->
    <line x1="30"  y1="680" x2="-20" y2="630" stroke="#4a3018" strokeWidth="4" strokeLinecap="round"/>
    <line x1="55"  y1="600" x2="110" y2="565" stroke="#4a3018" strokeWidth="3.5" strokeLinecap="round"/>
    <!-- buds - tiny dark red -->
    <circle cx="20"  cy="540" r="7" fill="#8a1520"/>
    <circle cx="70"  cy="510" r="6" fill="#8a1520"/>
    <circle cx="110" cy="565" r="5" fill="#6a1018"/>
  </g>

  <!-- ROSE 2 -->
  <g>
    <line x1="185" y1="900" x2="160" y2="510" stroke="#5a3820" strokeWidth="8" strokeLinecap="round"/>
    <line x1="195" y1="900" x2="220" y2="495" stroke="#4a3018" strokeWidth="7" strokeLinecap="round"/>
    <line x1="175" y1="900" x2="140" y2="540" stroke="#3a2810" strokeWidth="5" strokeLinecap="round"/>
    <!-- laterals -->
    <line x1="170" y1="720" x2="110" y2="670" stroke="#4a3018" strokeWidth="4" strokeLinecap="round"/>
    <line x1="180" y1="640" x2="120" y2="600" stroke="#3a2810" strokeWidth="3" strokeLinecap="round"/>
    <line x1="205" y1="600" x2="270" y2="555" stroke="#4a3018" strokeWidth="3.5" strokeLinecap="round"/>
    <line x1="215" y1="560" x2="280" y2="520" stroke="#3a2810" strokeWidth="3" strokeLinecap="round"/>
    <!-- buds — main + side -->
    <circle cx="160" cy="510" r="9" fill="#9a1825"/>
    <circle cx="220" cy="495" r="8" fill="#9a1825"/>
    <circle cx="280" cy="520" r="6" fill="#7a1020"/>
    <circle cx="110" cy="670" r="5" fill="#6a1018"/>
    <!-- tiny swelling leaf buds on cane -->
    <ellipse cx="185" cy="650" rx="5" ry="3" fill="#3a5820" opacity="0.7" transform="rotate(-30,185,650)"/>
    <ellipse cx="200" cy="580" rx="4" ry="2.5" fill="#3a5820" opacity="0.6" transform="rotate(20,200,580)"/>
  </g>

  <!-- ROSE 3 — center-left, tallest, most detail -->
  <g>
    <line x1="360" y1="900" x2="330" y2="490" stroke="#5a3820" strokeWidth="9" strokeLinecap="round"/>
    <line x1="375" y1="900" x2="400" y2="480" stroke="#4a3018" strokeWidth="8" strokeLinecap="round"/>
    <line x1="350" y1="900" x2="300" y2="520" stroke="#3a2810" strokeWidth="6" strokeLinecap="round"/>
    <!-- laterals -->
    <line x1="340" y1="740" x2="260" y2="690" stroke="#4a3018" strokeWidth="4.5" strokeLinecap="round"/>
    <line x1="260" y1="690" x2="200" y2="660" stroke="#3a2810" strokeWidth="3" strokeLinecap="round"/>
    <line x1="365" y1="650" x2="430" y2="600" stroke="#4a3018" strokeWidth="4" strokeLinecap="round"/>
    <line x1="430" y1="600" x2="490" y2="570" stroke="#3a2810" strokeWidth="3" strokeLinecap="round"/>
    <line x1="345" y1="570" x2="280" y2="530" stroke="#4a3018" strokeWidth="3.5" strokeLinecap="round"/>
    <!-- main buds — swelling, about to open -->
    <circle cx="330" cy="490" r="11" fill="#a02030"/>
    <circle cx="400" cy="480" r="10" fill="#a02030"/>
    <circle cx="300" cy="520" r="8"  fill="#8a1825"/>
    <circle cx="280" cy="530" r="7"  fill="#7a1020"/>
    <circle cx="490" cy="570" r="6"  fill="#7a1020"/>
    <!-- hint of petals starting to separate on biggest bud -->
    <path d="M 320 485 Q 330 478 340 485" fill="none" stroke="#d04060" strokeWidth="2.5"/>
    <path d="M 325 492 Q 330 484 335 492" fill="none" stroke="#d04060" strokeWidth="2"/>
    <!-- leaves emerging -->
    <ellipse cx="355" cy="700" rx="8" ry="4" fill="#3a5820" opacity="0.75" transform="rotate(-40,355,700)"/>
    <ellipse cx="370" cy="630" rx="7" ry="3.5" fill="#3a5820" opacity="0.7" transform="rotate(25,370,630)"/>
    <ellipse cx="360" cy="560" rx="6" ry="3" fill="#3a5820" opacity="0.65" transform="rotate(-15,360,560)"/>
    <!-- thorns suggestion -->
    <path d="M 345 620 L 336 614" stroke="#3a2810" strokeWidth="2" strokeLinecap="round"/>
    <path d="M 358 680 L 366 673" stroke="#3a2810" strokeWidth="2" strokeLinecap="round"/>
  </g>

  <!-- ROSE 4 — center -->
  <g>
    <line x1="530" y1="900" x2="510" y2="510" stroke="#5a3820" strokeWidth="8" strokeLinecap="round"/>
    <line x1="545" y1="900" x2="570" y2="495" stroke="#4a3018" strokeWidth="7" strokeLinecap="round"/>
    <line x1="520" y1="900" x2="480" y2="530" stroke="#3a2810" strokeWidth="5" strokeLinecap="round"/>
    <!-- laterals -->
    <line x1="525" y1="680" x2="460" y2="640" stroke="#4a3018" strokeWidth="4" strokeLinecap="round"/>
    <line x1="540" y1="600" x2="600" y2="560" stroke="#4a3018" strokeWidth="3.5" strokeLinecap="round"/>
    <line x1="515" y1="560" x2="450" y2="520" stroke="#3a2810" strokeWidth="3" strokeLinecap="round"/>
    <!-- buds -->
    <circle cx="510" cy="510" r="10" fill="#9a1825"/>
    <circle cx="570" cy="495" r="9"  fill="#a02030"/>
    <circle cx="600" cy="560" r="7"  fill="#7a1020"/>
    <circle cx="450" cy="520" r="7"  fill="#7a1020"/>
    <!-- leaves -->
    <ellipse cx="530" cy="660" rx="7" ry="3.5" fill="#3a5820" opacity="0.7" transform="rotate(-35,530,660)"/>
    <ellipse cx="545" cy="580" rx="6" ry="3" fill="#3a5820" opacity="0.65" transform="rotate(20,545,580)"/>
  </g>

  <!-- ROSE 5 -->
  <g>
    <line x1="700" y1="900" x2="675" y2="520" stroke="#5a3820" strokeWidth="8" strokeLinecap="round"/>
    <line x1="715" y1="900" x2="740" y2="505" stroke="#4a3018" strokeWidth="7" strokeLinecap="round"/>
    <line x1="690" y1="900" x2="650" y2="540" stroke="#3a2810" strokeWidth="5" strokeLinecap="round"/>
    <!-- laterals -->
    <line x1="695" y1="710" x2="630" y2="665" stroke="#4a3018" strokeWidth="4" strokeLinecap="round"/>
    <line x1="710" y1="620" x2="770" y2="580" stroke="#4a3018" strokeWidth="3.5" strokeLinecap="round"/>
    <line x1="680" y1="575" x2="615" y2="540" stroke="#3a2810" strokeWidth="3" strokeLinecap="round"/>
    <!-- buds -->
    <circle cx="675" cy="520" r="10" fill="#9a1825"/>
    <circle cx="740" cy="505" r="9"  fill="#a02030"/>
    <circle cx="770" cy="580" r="7"  fill="#7a1020"/>
    <circle cx="615" cy="540" r="6"  fill="#6a1018"/>
    <!-- leaves -->
    <ellipse cx="700" cy="690" rx="7" ry="3.5" fill="#3a5820" opacity="0.7" transform="rotate(-30,700,690)"/>
    <ellipse cx="715" cy="600" rx="6" ry="3"   fill="#3a5820" opacity="0.65" transform="rotate(15,715,600)"/>
  </g>

  <!-- ROSE 6 — rightmost, partially cut -->
  <g opacity="0.85">
    <line x1="870" y1="900" x2="850" y2="530" stroke="#5a3820" strokeWidth="7" strokeLinecap="round"/>
    <line x1="885" y1="900" x2="910" y2="515" stroke="#4a3018" strokeWidth="6" strokeLinecap="round"/>
    <line x1="858" y1="900" x2="820" y2="550" stroke="#3a2810" strokeWidth="5" strokeLinecap="round"/>
    <!-- laterals -->
    <line x1="865" y1="700" x2="800" y2="660" stroke="#4a3018" strokeWidth="3.5" strokeLinecap="round"/>
    <line x1="878" y1="610" x2="940" y2="575" stroke="#4a3018" strokeWidth="3" strokeLinecap="round"/>
    <!-- buds -->
    <circle cx="850" cy="530" r="9"  fill="#9a1825"/>
    <circle cx="910" cy="515" r="8"  fill="#a02030"/>
    <circle cx="940" cy="575" r="6"  fill="#7a1020"/>
    <!-- leaf -->
    <ellipse cx="872" cy="675" rx="6" ry="3" fill="#3a5820" opacity="0.7" transform="rotate(-28,872,675)"/>
  </g>

  <!-- ══════════════════════════════════════════════════════ -->
  <!-- depth fog — softens the transition to soil -->
  <!-- ══════════════════════════════════════════════════════ -->
  <rect x="0" y="400" width="950" height="220" fill="url(#depthFog)"/>

  <!-- ══════════════════════════════════════════════════════ -->
  <!-- VIGNETTE -->
  <!-- ══════════════════════════════════════════════════════ -->
  <rect x="0" y="0" width="1400" height="900" fill="url(#vignette)"/>

  <!-- ══════════════════════════════════════════════════════ -->
  <!-- UI OVERLAY — title + prompt -->
  <!-- ══════════════════════════════════════════════════════ -->
  <text x="700" y="50" textAnchor="middle" fontFamily="'Press Start 2P', monospace" fontSize="26"
    fill="#c8a018" letterSpacing="3"
    style="text-shadow: 2px 3px 0 #2a1006">GARDEN PARTY</text>
  <text x="700" y="76" textAnchor="middle" fontFamily="Georgia, serif" fontSize="15"
    fill="#e0cfa0" fontStyle="italic" opacity="0.85">click the door to enter</text>

  <!-- ══════════════════════════════════════════════════════ -->
  <!-- RIGHT SIDE LABEL ZONE (placeholder) -->
  <!-- If screen is 1400 wide, the blurry brownstone continues right -->
  <!-- ══════════════════════════════════════════════════════ -->

</svg>
